<?xml version="1.0"?>
<svg xmlns="http://www.w3.org/2000/svg" viewBox="0 0 24 24" enable-background="new 0 0 24 24">
    <path style="text-indent:0;text-align:start;line-height:normal;text-transform:none;block-progression:tb;-inkscape-font-specification:Bitstream Vera Sans" d="M 6 2 C 5.5 2 5.20625 2.0875 4.90625 2.1875 C 4.50625 2.3875 4.3 2.6125 4 2.8125 C 3.7 3.0125 3.50625 3.29375 3.40625 3.59375 C 3.30625 3.89375 3.1875 4.19375 3.1875 4.59375 L 4.8125 4.59375 C 4.8125 4.39375 4.80625 4.19375 4.90625 4.09375 C 4.90625 3.89375 4.99375 3.79375 5.09375 3.59375 C 5.19375 3.49375 5.30625 3.40625 5.40625 3.40625 C 5.60625 3.30625 5.70625 3.3125 5.90625 3.3125 C 6.30625 3.3125 6.4875 3.39375 6.6875 3.59375 C 6.8875 3.79375 7 4.00625 7 4.40625 C 7 4.50625 6.90625 4.6125 6.90625 4.8125 C 6.90625 4.9125 6.7875 4.99375 6.6875 5.09375 C 6.5875 5.29375 6.50625 5.39375 6.40625 5.59375 C 6.30625 5.79375 6.1 5.9875 6 6.1875 L 3.40625 8.90625 L 3.40625 10 L 8.8125 10 L 8.8125 8.6875 L 5.40625 8.6875 L 6.8125 7.3125 C 7.0125 7.0125 7.3 6.7 7.5 6.5 C 7.7 6.2 7.89375 5.9875 8.09375 5.6875 C 8.19375 5.4875 8.3 5.2 8.5 5 C 8.6 4.7 8.59375 4.4875 8.59375 4.1875 C 8.59375 3.8875 8.60625 3.6125 8.40625 3.3125 C 8.20625 3.0125 8.10625 2.79375 7.90625 2.59375 C 7.70625 2.49375 7.39375 2.2875 7.09375 2.1875 C 6.79375 2.0875 6.4 2 6 2 z M 17 2 L 17 17 L 14 17 L 18 22 L 22 17 L 19 17 L 19 2 L 17 2 z M 6.8125 14 L 3.5 15.1875 L 3.5 16.5 L 5.40625 15.90625 L 5.40625 22 L 7 22 L 7 14 L 6.8125 14 z" overflow="visible" enable-background="accumulate" font-family="Bitstream Vera Sans"/>
</svg>
