<?xml version="1.0"?>
<svg xmlns="http://www.w3.org/2000/svg" viewBox="0 0 24 24" enable-background="new 0 0 24 24">
    <path style="text-indent:0;text-align:start;line-height:normal;text-transform:none;block-progression:tb;-inkscape-font-specification:Bitstream Vera Sans" d="M 6.8125 2 L 3.5 3.1875 L 3.5 4.5 L 5.40625 3.90625 L 5.40625 10 L 7 10 L 7 2 L 6.8125 2 z M 17 2 L 17 17 L 14 17 L 18 22 L 22 17 L 19 17 L 19 2 L 17 2 z M 6 14 C 5.5 14 5.20625 14.0875 4.90625 14.1875 C 4.50625 14.3875 4.3 14.6125 4 14.8125 C 3.7 15.0125 3.50625 15.3 3.40625 15.5 C 3.30625 15.8 3.1875 16.1 3.1875 16.5 L 4.8125 16.5 C 4.8125 16.3 4.80625 16.2 4.90625 16 C 4.90625 15.9 4.99375 15.69375 5.09375 15.59375 C 5.19375 15.49375 5.4 15.4125 5.5 15.3125 C 5.7 15.2125 5.8 15.1875 6 15.1875 C 6.4 15.1875 6.6125 15.3 6.8125 15.5 C 7.0125 15.7 7.09375 15.9125 7.09375 16.3125 C 7.09375 16.5125 7 16.5875 7 16.6875 C 6.9 16.7875 6.9125 16.99375 6.8125 17.09375 C 6.7125 17.29375 6.6 17.39375 6.5 17.59375 C 6.4 17.79375 6.2 17.9875 6 18.1875 L 3.40625 20.90625 L 3.40625 22 L 8.8125 22 L 8.8125 20.8125 L 5.40625 20.8125 L 6.8125 19.3125 C 7.0125 19.0125 7.3 18.70625 7.5 18.40625 C 7.8 18.20625 7.89375 17.8875 8.09375 17.6875 C 8.29375 17.4875 8.4 17.2 8.5 17 C 8.6 16.7 8.59375 16.4875 8.59375 16.1875 C 8.59375 15.8875 8.50625 15.6125 8.40625 15.3125 C 8.30625 15.0125 8.10625 14.79375 7.90625 14.59375 C 7.70625 14.49375 7.39375 14.2875 7.09375 14.1875 C 6.79375 14.0875 6.4 14 6 14 z" overflow="visible" enable-background="accumulate" font-family="Bitstream Vera Sans"/>
</svg>
